{
  "accessors": [
    {
      "bufferView": 2,
      "componentType": 5126,
      "count": 8643,
      "max": [32.81060791015625, 90.42749786376953, 28.57745933532715],
      "min": [-32.81060791015625, -0.00040287122828885913, -39.36713409423828],
      "type": "VEC3"
    },
    {
      "bufferView": 2,
      "byteOffset": 103716,
      "componentType": 5126,
      "count": 8643,
      "max": [0.9999993443489075, 0.9999993443489075, 0.999998152256012],
      "min": [-0.9999993443489075, -1.0, -0.9999994039535522],
      "type": "VEC3"
    },
    {
      "bufferView": 1,
      "componentType": 5126,
      "count": 8643,
      "max": [0.996335506439209, 0.9977785348892212],
      "min": [0.003997643943876028, 0.01240307092666626],
      "type": "VEC2"
    },
    {
      "bufferView": 1,
      "byteOffset": 69144,
      "componentType": 5126,
      "count": 8643,
      "max": [0.9935617446899414, 0.9848328232765198],
      "min": [0.015309303998947144, 0.01763008162379265],
      "type": "VEC2"
    },
    {
      "bufferView": 1,
      "byteOffset": 138288,
      "componentType": 5126,
      "count": 8643,
      "max": [0.996335506439209, 0.9977785348892212],
      "min": [0.003997643943876028, 0.01240307092666626],
      "type": "VEC2"
    },
    {
      "bufferView": 1,
      "byteOffset": 207432,
      "componentType": 5126,
      "count": 8643,
      "max": [0.996335506439209, 0.9977785348892212],
      "min": [0.003997643943876028, 0.01240307092666626],
      "type": "VEC2"
    },
    {
      "bufferView": 0,
      "componentType": 5125,
      "count": 47427,
      "type": "SCALAR"
    }
  ],
  "asset": {
    "extras": {
      "author": "PLUGON 3D (https://sketchfab.com/plugon3d)",
      "license": "CC-BY-4.0 (http://creativecommons.org/licenses/by/4.0/)",
      "source": "https://sketchfab.com/3d-models/modern-furniture-001-cb975a08520b44efb55f1f6b96e2ec4b",
      "title": "modern furniture_001"
    },
    "generator": "Sketchfab-16.53.0",
    "version": "2.0"
  },
  "bufferViews": [
    {
      "buffer": 0,
      "byteLength": 189708,
      "name": "floatBufferViews",
      "target": 34963
    },
    {
      "buffer": 0,
      "byteLength": 276576,
      "byteOffset": 189708,
      "byteStride": 8,
      "name": "floatBufferViews",
      "target": 34962
    },
    {
      "buffer": 0,
      "byteLength": 207432,
      "byteOffset": 466284,
      "byteStride": 12,
      "name": "floatBufferViews",
      "target": 34962
    }
  ],
  "buffers": [
    {
      "byteLength": 673716,
      "uri": "furniture.bin"
    }
  ],
  "extensionsUsed": ["KHR_materials_specular"],
  "images": [
    {
      "uri": "textures/FUNITURE_001_MAT_baseColor.png"
    },
    {
      "uri": "textures/FUNITURE_001_MAT_metallicRoughness.png"
    }
  ],
  "materials": [
    {
      "doubleSided": true,
      "extensions": {
        "KHR_materials_specular": {
          "specularColorFactor": [1.0, 1.0, 1.0],
          "specularFactor": 0.474491852597017
        }
      },
      "name": "FUNITURE_001_MAT",
      "pbrMetallicRoughness": {
        "baseColorTexture": {
          "index": 0
        },
        "metallicFactor": 0.0,
        "metallicRoughnessTexture": {
          "index": 1
        }
      }
    }
  ],
  "meshes": [
    {
      "name": "FUNITURE_001_FUNITURE_001_MAT_0",
      "primitives": [
        {
          "attributes": {
            "NORMAL": 1,
            "POSITION": 0,
            "TEXCOORD_0": 2,
            "TEXCOORD_1": 3,
            "TEXCOORD_2": 4,
            "TEXCOORD_3": 5
          },
          "indices": 6,
          "material": 0,
          "mode": 4
        }
      ]
    }
  ],
  "nodes": [
    {
      "children": [1],
      "matrix": [
        1.0, 0.0, 0.0, 0.0, 0.0, 2.220446049250313e-16, -1.0, 0.0, 0.0, 1.0,
        2.220446049250313e-16, 0.0, 0.0, 0.0, 0.0, 1.0
      ],
      "name": "Sketchfab_model"
    },
    {
      "children": [2],
      "matrix": [
        0.009999999776482582, 0.0, 0.0, 0.0, 0.0, 0.0, 0.009999999776482582,
        0.0, 0.0, -0.009999999776482582, 0.0, 0.0, 0.0, 0.0, 0.0, 1.0
      ],
      "name": "fa67fd1f28a54af2b72a55c6129307da.fbx"
    },
    {
      "children": [3],
      "name": "RootNode"
    },
    {
      "children": [4],
      "name": "FUNITURE_001_ROOT"
    },
    {
      "children": [5],
      "name": "FUNITURE_001"
    },
    {
      "mesh": 0,
      "name": "FUNITURE_001_FUNITURE_001_MAT_0"
    }
  ],
  "samplers": [
    {
      "magFilter": 9729,
      "minFilter": 9987,
      "wrapS": 10497,
      "wrapT": 10497
    }
  ],
  "scene": 0,
  "scenes": [
    {
      "name": "Sketchfab_Scene",
      "nodes": [0]
    }
  ],
  "textures": [
    {
      "sampler": 0,
      "source": 0
    },
    {
      "sampler": 0,
      "source": 1
    }
  ]
}
